<svg width="50" xmlns="http://www.w3.org/2000/svg" height="50" fill="none"><path d="M25.000,43.750C19.792,43.750,15.365,41.927,11.719,38.281C8.073,34.635,6.250,30.208,6.250,25.000C6.250,19.792,8.073,15.365,11.719,11.719C15.365,8.073,19.792,6.250,25.000,6.250C25.486,6.250,25.964,6.267,26.432,6.302C26.901,6.337,27.361,6.389,27.813,6.458C26.389,7.465,25.252,8.776,24.401,10.391C23.550,12.005,23.125,13.750,23.125,15.625C23.125,18.750,24.219,21.406,26.406,23.594C28.594,25.781,31.250,26.875,34.375,26.875C36.285,26.875,38.038,26.450,39.635,25.599C41.233,24.748,42.535,23.611,43.542,22.188C43.611,22.639,43.663,23.099,43.698,23.568C43.733,24.036,43.750,24.514,43.750,25.000C43.750,30.208,41.927,34.635,38.281,38.281C34.635,41.927,30.208,43.750,25.000,43.750ZZM25.000,39.583C28.056,39.583,30.799,38.741,33.229,37.057C35.660,35.373,37.431,33.177,38.542,30.469C37.847,30.642,37.153,30.781,36.458,30.885C35.764,30.990,35.069,31.042,34.375,31.042C30.104,31.042,26.467,29.540,23.464,26.536C20.460,23.533,18.958,19.896,18.958,15.625C18.958,14.931,19.010,14.236,19.115,13.542C19.219,12.847,19.358,12.153,19.531,11.458C16.823,12.569,14.627,14.340,12.943,16.771C11.259,19.201,10.417,21.944,10.417,25.000C10.417,29.028,11.840,32.465,14.688,35.313C17.535,38.160,20.972,39.583,25.000,39.583ZZM24.479,25.521Z" class="fills" style="fill: rgb(0, 0, 0);"/></svg>