<svg width="50" xmlns="http://www.w3.org/2000/svg" height="50" fill="none"><g style="fill: rgb(0, 0, 0);"><path d="M25.000,31.250C26.736,31.250,28.212,30.642,29.427,29.427C30.642,28.212,31.250,26.736,31.250,25.000C31.250,23.264,30.642,21.788,29.427,20.573C28.212,19.358,26.736,18.750,25.000,18.750C23.264,18.750,21.788,19.358,20.573,20.573C19.358,21.788,18.750,23.264,18.750,25.000C18.750,26.736,19.358,28.212,20.573,29.427C21.788,30.642,23.264,31.250,25.000,31.250ZZM25.000,35.417C22.118,35.417,19.661,34.401,17.630,32.370C15.599,30.339,14.583,27.882,14.583,25.000C14.583,22.118,15.599,19.661,17.630,17.630C19.661,15.599,22.118,14.583,25.000,14.583C27.882,14.583,30.339,15.599,32.370,17.630C34.401,19.661,35.417,22.118,35.417,25.000C35.417,27.882,34.401,30.339,32.370,32.370C30.339,34.401,27.882,35.417,25.000,35.417ZZM10.417,27.083L2.083,27.083L2.083,22.917L10.417,22.917L10.417,27.083ZZM47.917,27.083L39.583,27.083L39.583,22.917L47.917,22.917L47.917,27.083ZZM22.917,10.417L22.917,2.083L27.083,2.083L27.083,10.417L22.917,10.417ZZM22.917,47.917L22.917,39.583L27.083,39.583L27.083,47.917L22.917,47.917ZZM13.333,16.146L8.073,11.094L11.042,8.021L16.042,13.229L13.333,16.146ZZM38.958,41.979L33.906,36.719L36.667,33.854L41.927,38.906L38.958,41.979ZZM33.854,13.333L38.906,8.073L41.979,11.042L36.771,16.042L33.854,13.333ZZM8.021,38.958L13.281,33.906L16.146,36.667L11.094,41.927L8.021,38.958ZZM25.000,25.000Z" style="fill: rgb(177, 178, 181); fill-opacity: 1;" class="fills"/></g></svg>