<svg width="32" height="32" xmlns="http://www.w3.org/2000/svg" shape-rendering="crispEdges"><path fill="#D10404" d="M17 0h1v1h-1zM18 0h1v1h-1zM19 0h1v1h-1zM20 0h1v1h-1zM21 0h1v1h-1zM22 0h1v1h-1zM23 0h1v1h-1zM24 0h1v1h-1zM25 0h1v1h-1zM17 1h1v1h-1zM18 1h1v1h-1zM19 1h1v1h-1zM20 1h1v1h-1zM21 1h1v1h-1zM22 1h1v1h-1zM23 1h1v1h-1zM24 1h1v1h-1zM25 1h1v1h-1zM17 2h1v1h-1zM18 2h1v1h-1zM19 2h1v1h-1zM20 2h1v1h-1zM21 2h1v1h-1zM22 2h1v1h-1zM23 2h1v1h-1zM24 2h1v1h-1zM25 2h1v1h-1zM14 3h1v1h-1zM15 3h1v1h-1zM16 3h1v1h-1zM26 3h1v1h-1zM27 3h1v1h-1zM28 3h1v1h-1zM14 4h1v1h-1zM15 4h1v1h-1zM16 4h1v1h-1zM26 4h1v1h-1zM27 4h1v1h-1zM28 4h1v1h-1zM14 5h1v1h-1zM15 5h1v1h-1zM16 5h1v1h-1zM26 5h1v1h-1zM27 5h1v1h-1zM28 5h1v1h-1zM29 6h1v1h-1zM30 6h1v1h-1zM31 6h1v1h-1zM29 7h1v1h-1zM30 7h1v1h-1zM31 7h1v1h-1zM29 8h1v1h-1zM30 8h1v1h-1zM31 8h1v1h-1zM29 9h1v1h-1zM30 9h1v1h-1zM31 9h1v1h-1zM19 10h1v1h-1zM20 10h1v1h-1zM21 10h1v1h-1zM29 10h1v1h-1zM30 10h1v1h-1zM31 10h1v1h-1zM19 11h1v1h-1zM20 11h1v1h-1zM21 11h1v1h-1zM29 11h1v1h-1zM30 11h1v1h-1zM31 11h1v1h-1zM19 12h1v1h-1zM20 12h1v1h-1zM21 12h1v1h-1zM29 12h1v1h-1zM30 12h1v1h-1zM31 12h1v1h-1zM16 13h1v1h-1zM17 13h1v1h-1zM18 13h1v1h-1zM29 13h1v1h-1zM30 13h1v1h-1zM31 13h1v1h-1zM3 14h1v1H3zM4 14h1v1H4zM5 14h1v1H5zM16 14h1v1h-1zM17 14h1v1h-1zM18 14h1v1h-1zM29 14h1v1h-1zM30 14h1v1h-1zM31 14h1v1h-1zM3 15h1v1H3zM4 15h1v1H4zM5 15h1v1H5zM16 15h1v1h-1zM17 15h1v1h-1zM18 15h1v1h-1zM26 15h1v1h-1zM27 15h1v1h-1zM28 15h1v1h-1zM3 16h1v1H3zM4 16h1v1H4zM5 16h1v1H5zM13 16h1v1h-1zM14 16h1v1h-1zM15 16h1v1h-1zM26 16h1v1h-1zM27 16h1v1h-1zM28 16h1v1h-1zM0 17h1v1H0zM1 17h1v1H1zM2 17h1v1H2zM13 17h1v1h-1zM14 17h1v1h-1zM15 17h1v1h-1zM26 17h1v1h-1zM27 17h1v1h-1zM28 17h1v1h-1zM0 18h1v1H0zM1 18h1v1H1zM2 18h1v1H2zM13 18h1v1h-1zM14 18h1v1h-1zM15 18h1v1h-1zM0 19h1v1H0zM1 19h1v1H1zM2 19h1v1H2zM10 19h1v1h-1zM11 19h1v1h-1zM12 19h1v1h-1zM0 20h1v1H0zM1 20h1v1H1zM2 20h1v1H2zM10 20h1v1h-1zM11 20h1v1h-1zM12 20h1v1h-1zM0 21h1v1H0zM1 21h1v1H1zM2 21h1v1H2zM10 21h1v1h-1zM11 21h1v1h-1zM12 21h1v1h-1zM0 22h1v1H0zM1 22h1v1H1zM2 22h1v1H2zM0 23h1v1H0zM1 23h1v1H1zM2 23h1v1H2zM0 24h1v1H0zM1 24h1v1H1zM2 24h1v1H2zM0 25h1v1H0zM1 25h1v1H1zM2 25h1v1H2zM3 26h1v1H3zM4 26h1v1H4zM5 26h1v1H5zM15 26h1v1h-1zM16 26h1v1h-1zM17 26h1v1h-1zM3 27h1v1H3zM4 27h1v1H4zM5 27h1v1H5zM15 27h1v1h-1zM16 27h1v1h-1zM17 27h1v1h-1zM3 28h1v1H3zM4 28h1v1H4zM5 28h1v1H5zM15 28h1v1h-1zM16 28h1v1h-1zM17 28h1v1h-1zM6 29h1v1H6zM7 29h1v1H7zM8 29h1v1H8zM9 29h1v1H9zM10 29h1v1h-1zM11 29h1v1h-1zM12 29h1v1h-1zM13 29h1v1h-1zM14 29h1v1h-1zM6 30h1v1H6zM7 30h1v1H7zM8 30h1v1H8zM9 30h1v1H9zM10 30h1v1h-1zM11 30h1v1h-1zM12 30h1v1h-1zM13 30h1v1h-1zM14 30h1v1h-1zM6 31h1v1H6zM7 31h1v1H7zM8 31h1v1H8zM9 31h1v1H9zM10 31h1v1h-1zM11 31h1v1h-1zM12 31h1v1h-1zM13 31h1v1h-1zM14 31h1v1h-1z"/></svg>